<?xml version="1.0" encoding="UTF-8"?><svg xmlns="http://www.w3.org/2000/svg" xmlns:xlink="http://www.w3.org/1999/xlink" version="1.1" id="Layer_1" x="0px" y="0px" viewBox="0 0 48 48" xml:space="preserve"><path d="M9 17c-3.86 0-7 3.14-7 7s3.14 7 7 7 7-3.14 7-7-3.14-7-7-7z" fill="none" stroke="#B3BDE2" stroke-width="2" stroke-miterlimit="10"/><circle cx="39" cy="24" r="7" fill="none" stroke="#B3BDE2" stroke-width="2" stroke-miterlimit="10"/><circle cx="29" cy="24" r="7" fill="none" stroke="#B3BDE2" stroke-width="2" stroke-miterlimit="10"/><circle cx="19" cy="24" r="7" fill="none" stroke="#B3BDE2" stroke-width="2" stroke-miterlimit="10"/><path d="M14 20.69c.631.95 1 2.087 1 3.31s-.369 2.36-1 3.31c-.631-.95-1-2.087-1-3.31s.369-2.36 1-3.31m0-1.807l-.833 1.254C12.404 21.287 12 22.623 12 24s.404 2.713 1.167 3.863L14 29.117l.833-1.254C15.596 26.713 16 25.377 16 24s-.404-2.713-1.167-3.863L14 18.883z" fill="#8E9CD6"/><path d="M24 20.69c.631.95 1 2.087 1 3.31s-.369 2.36-1 3.31c-.631-.95-1-2.087-1-3.31s.369-2.36 1-3.31m0-1.807l-.833 1.254C22.404 21.287 22 22.623 22 24s.404 2.713 1.167 3.863L24 29.117l.833-1.254C25.596 26.713 26 25.377 26 24s-.404-2.713-1.167-3.863L24 18.883z" fill="#8E9CD6"/><path d="M34 20.69c.631.95 1 2.087 1 3.31s-.369 2.36-1 3.31c-.631-.95-1-2.087-1-3.31s.369-2.36 1-3.31m0-1.807l-.833 1.254C32.404 21.287 32 22.623 32 24s.404 2.713 1.167 3.863L34 29.117l.833-1.254C35.596 26.713 36 25.377 36 24s-.404-2.713-1.167-3.863L34 18.883z" fill="#8E9CD6"/><metadata><rdf:RDF xmlns:rdf="http://www.w3.org/1999/02/22-rdf-syntax-ns#" xmlns:rdfs="http://www.w3.org/2000/01/rdf-schema#" xmlns:dc="http://purl.org/dc/elements/1.1/"><rdf:Description about="https://iconscout.com/legal#licenses" dc:title="audi" dc:description="audi" dc:publisher="Iconscout" dc:date="2017-12-15" dc:format="image/svg+xml" dc:language="en"><dc:creator><rdf:Bag><rdf:li>Icons8</rdf:li></rdf:Bag></dc:creator></rdf:Description></rdf:RDF></metadata></svg>