<svg id="Capa_1" enable-background="new 0 0 510 510" height="512" viewBox="0 0 510 510" width="512" xmlns="http://www.w3.org/2000/svg" xmlns:xlink="http://www.w3.org/1999/xlink"><linearGradient id="lg1"><stop offset="0" stop-color="#fee97d"/><stop offset=".5341" stop-color="#fed402"/><stop offset=".618" stop-color="#fecd0e"/><stop offset=".7684" stop-color="#feb92d"/><stop offset=".9666" stop-color="#fd9a5f"/><stop offset="1" stop-color="#fd9468"/></linearGradient><linearGradient id="SVGID_1_" gradientUnits="userSpaceOnUse" x1="-16.667" x2="352.347" xlink:href="#lg1" y1="439" y2="439"/><linearGradient id="SVGID_2_" gradientUnits="userSpaceOnUse" x1="-42.667" x2="264.782" xlink:href="#lg1" y1="439" y2="439"/><linearGradient id="SVGID_3_" gradientTransform="matrix(0 1 -1 0 260.041 -221.092)" gradientUnits="userSpaceOnUse" x1="416.025" x2="464.895" xlink:href="#lg1" y1="150.375" y2="150.375"/><linearGradient id="SVGID_4_" gradientTransform="matrix(0 1 -1 0 260.041 -221.092)" gradientUnits="userSpaceOnUse" x1="262.692" x2="311.562" xlink:href="#lg1" y1="-150.959" y2="-150.959"/><linearGradient id="lg2"><stop offset="0" stop-color="#a2e62e"/><stop offset=".5341" stop-color="#81b823"/><stop offset=".6047" stop-color="#75b528"/><stop offset=".7313" stop-color="#56ab36"/><stop offset=".8979" stop-color="#249b4d"/><stop offset="1" stop-color="#02905d"/></linearGradient><linearGradient id="SVGID_5_" gradientUnits="userSpaceOnUse" x1="66" x2="267.249" xlink:href="#lg2" y1="281.373" y2="281.373"/><linearGradient id="SVGID_6_" gradientUnits="userSpaceOnUse" x1="24" x2="225.896" xlink:href="#lg2" y1="281.375" y2="281.375"/><linearGradient id="SVGID_7_" gradientUnits="userSpaceOnUse" x1="257.562" x2="447.056" xlink:href="#lg2" y1="160.635" y2="160.635"/><linearGradient id="SVGID_8_" gradientUnits="userSpaceOnUse" x1="140" x2="449.556" xlink:href="#lg2" y1="160.635" y2="160.635"/><linearGradient id="SVGID_9_" gradientTransform="matrix(0 1 -1 0 260.041 -221.092)" gradientUnits="userSpaceOnUse" x1="220.692" x2="269.562" xlink:href="#lg1" y1="5.042" y2="5.042"/><linearGradient id="SVGID_10_" gradientUnits="userSpaceOnUse" x1="101.397" x2="388.157" xlink:href="#lg2" y1="235" y2="235"/><linearGradient id="SVGID_11_" gradientTransform="matrix(.707 -.707 .707 .707 37.863 141.359)" gradientUnits="userSpaceOnUse" x1="125.352" x2="183.661" xlink:href="#lg1" y1="44.067" y2="44.067"/><linearGradient id="SVGID_12_" gradientTransform="matrix(.707 -.707 .707 .707 37.863 141.359)" gradientUnits="userSpaceOnUse" x1="-70.422" x2="-12.112" xlink:href="#lg1" y1="89.493" y2="89.493"/><linearGradient id="SVGID_13_" gradientTransform="matrix(.707 .707 .707 -.707 37.863 71.032)" gradientUnits="userSpaceOnUse" x1="268.99" x2="327.299" xlink:href="#lg1" y1="279.94" y2="279.94"/><linearGradient id="SVGID_14_" gradientTransform="matrix(.707 .707 .707 -.707 37.863 471.032)" gradientUnits="userSpaceOnUse" x1="-103.891" x2="-45.582" xlink:href="#lg1" y1="148.419" y2="148.419"/><linearGradient id="SVGID_15_" gradientUnits="userSpaceOnUse" x1="307" x2="337.761" xlink:href="#lg1" y1="62.975" y2="62.975"/><linearGradient id="SVGID_16_" gradientUnits="userSpaceOnUse" x1="153" x2="201.87" xlink:href="#lg1" y1="142.475" y2="142.475"/><linearGradient id="SVGID_17_" gradientUnits="userSpaceOnUse" x1="303" x2="364.002" xlink:href="#lg1" y1="142.475" y2="142.475"/><linearGradient id="SVGID_18_" gradientUnits="userSpaceOnUse" x1="303" x2="364.002" xlink:href="#lg1" y1="279.475" y2="279.475"/><linearGradient id="SVGID_19_" gradientUnits="userSpaceOnUse" x1="404.333" x2="465.335" xlink:href="#lg1" y1="147.475" y2="147.475"/><linearGradient id="SVGID_20_" gradientUnits="userSpaceOnUse" x1="303" x2="364.002" xlink:href="#lg1" y1="385.975" y2="385.975"/><linearGradient id="SVGID_21_" gradientUnits="userSpaceOnUse" x1="153" x2="201.87" xlink:href="#lg1" y1="261.475" y2="261.475"/><linearGradient id="SVGID_22_" gradientUnits="userSpaceOnUse" x1="-11.423" x2="354.67" xlink:href="#lg2" y1="235" y2="235"/><linearGradient id="SVGID_23_" gradientUnits="userSpaceOnUse" x1="-11.423" x2="354.67" xlink:href="#lg2" y1="157" y2="157"/><linearGradient id="SVGID_24_" gradientUnits="userSpaceOnUse" x1="-11.423" x2="354.67" xlink:href="#lg2" y1="374.25" y2="374.25"/><linearGradient id="SVGID_25_" gradientUnits="userSpaceOnUse" x1="-11.423" x2="354.67" xlink:href="#lg2" y1="253.007" y2="253.007"/><linearGradient id="SVGID_26_" gradientUnits="userSpaceOnUse" x1="181" x2="229.87" xlink:href="#lg1" y1="203.975" y2="203.975"/><linearGradient id="SVGID_27_" gradientUnits="userSpaceOnUse" x1="181" x2="229.87" xlink:href="#lg1" y1="373.975" y2="373.975"/><linearGradient id="SVGID_28_" gradientUnits="userSpaceOnUse" x1="260.5" x2="321.502" xlink:href="#lg1" y1="331.475" y2="331.475"/><linearGradient id="SVGID_29_" gradientUnits="userSpaceOnUse" x1="63.573" x2="510.755" xlink:href="#lg1" y1="462.939" y2="462.939"/><linearGradient id="SVGID_30_" gradientUnits="userSpaceOnUse" x1="7" x2="465.132" xlink:href="#lg1" y1="462.939" y2="462.939"/><g><path d="m330.899 510h-305.563c-20.034 0-32.117-22.182-21.251-39.014 43.254-67 94.959-102.986 147.972-102.986h5.683c53.013 0 104.718 35.986 147.972 102.986z" fill="url(#SVGID_1_)"/><path d="m330.9 510h-295.45v-4.873c0-22.675 12.122-43.652 31.821-54.882 23.41-13.345 48.095-24.151 73.629-32.285 10.149-3.23 20.436-6.038 30.831-8.415 17.389-3.976 19.006-28.255 2.205-34.247-10.403-3.711-20.934-6.023-31.536-6.898 3.21-.27 6.43-.4 9.66-.4h5.68c29.29 0 58.19 10.99 85.48 32.14 22.09 17.11 43.14 40.88 62.49 70.85z" fill="url(#SVGID_2_)"/><g><path d="m109.667 195.333c-4.143 0-7.5 3.358-7.5 7.5v16.333c0 4.142 3.357 7.5 7.5 7.5s7.5-3.358 7.5-7.5v-16.333c0-4.142-3.358-7.5-7.5-7.5z" fill="url(#SVGID_3_)"/><path d="m411 42c-4.143 0-7.5 3.358-7.5 7.5v16.333c0 4.142 3.357 7.5 7.5 7.5s7.5-3.358 7.5-7.5v-16.333c0-4.142-3.357-7.5-7.5-7.5z" fill="url(#SVGID_4_)"/><path d="m228.565 347.627h-56.985c-55.145 0-100.009-44.863-100.009-100.008 0-17.949 14.551-32.5 32.5-32.5s32.5 14.551 32.5 32.5c0 19.304 15.705 35.008 35.009 35.008h56.985c17.949 0 32.5 14.551 32.5 32.5s-14.55 32.5-32.5 32.5z" fill="url(#SVGID_5_)"/><path d="m261.07 315.13c0 17.95-14.56 32.5-32.5 32.5h-56.99c-10.21 0-20.08-1.54-29.36-4.41v-49.377c0-6.193-5.02-11.213-11.213-11.213-19.3 0-34.413-15.786-34.457-35.086-.024-10.369-4.899-19.598-12.49-25.534 5.51-4.31 12.46-6.89 20.01-6.89 17.95 0 32.5 14.55 32.5 32.5 0 7.02 2.08 13.56 5.65 19.04 6.25 9.61 17.08 15.97 29.36 15.97h56.99c17.94 0 32.5 14.55 32.5 32.5z" fill="url(#SVGID_6_)"/><path d="m347.047 262.132h-56.985c-17.949 0-32.5-14.551-32.5-32.5s14.551-32.5 32.5-32.5h56.985c19.304 0 35.009-15.705 35.009-35.009v-70.484c0-17.949 14.551-32.5 32.5-32.5s32.5 14.551 32.5 32.5v70.484c0 55.145-44.865 100.009-100.009 100.009z" fill="url(#SVGID_7_)"/><path d="m414.556 59.139c-7.55 0-14.493 2.582-20.01 6.9 7.6 5.949 12.49 15.2 12.49 25.6v70.484c0 55.145-44.864 100.009-100.009 100.009h40.02c55.145 0 100.009-44.864 100.009-100.009v-70.484c0-17.95-14.551-32.5-32.5-32.5z" fill="url(#SVGID_8_)"/><path d="m255 0c-4.143 0-7.5 3.358-7.5 7.5v16.333c0 4.142 3.357 7.5 7.5 7.5s7.5-3.358 7.5-7.5v-16.333c0-4.142-3.357-7.5-7.5-7.5z" fill="url(#SVGID_9_)"/><path d="m342.773 450h-175.546v-342.227c0-48.476 39.297-87.773 87.773-87.773 48.476 0 87.773 39.297 87.773 87.773z" fill="url(#SVGID_10_)"/><path d="m167.489 51.897c-2.929 2.929-2.929 7.678 0 10.607l11.549 11.549c2.929 2.929 7.677 2.929 10.607 0s2.929-7.678 0-10.607l-11.549-11.549c-2.93-2.929-7.678-2.929-10.607 0z" fill="url(#SVGID_11_)"/><path d="m61.177 222.451c-2.929 2.929-2.929 7.678 0 10.607l11.549 11.549c2.929 2.929 7.677 2.929 10.607 0s2.929-7.678 0-10.607l-11.549-11.549c-2.929-2.929-7.677-2.93-10.607 0z" fill="url(#SVGID_12_)"/><path d="m435.844 95.273c-2.929-2.929-2.929-7.678 0-10.607l11.549-11.549c2.929-2.929 7.677-2.929 10.607 0s2.929 7.678 0 10.607l-11.549 11.549c-2.929 2.929-7.678 2.93-10.607 0z" fill="url(#SVGID_13_)"/><path d="m79.177 324.607c-2.929-2.929-2.929-7.678 0-10.607l11.549-11.549c2.929-2.929 7.677-2.929 10.607 0 2.929 2.929 2.929 7.678 0 10.607l-11.549 11.549c-2.929 2.929-7.677 2.929-10.607 0z" fill="url(#SVGID_14_)"/><path d="m341.145 51.897c2.929 2.929 2.929 7.678 0 10.607l-11.549 11.549c-2.929 2.929-7.677 2.929-10.607 0-2.929-2.929-2.929-7.678 0-10.607l11.549-11.549c2.929-2.929 7.678-2.929 10.607 0z" fill="url(#SVGID_15_)"/><path d="m153.4 142.475c0 4.143 3.358 7.5 7.5 7.5h16.333c4.142 0 7.5-3.357 7.5-7.5s-3.358-7.5-7.5-7.5h-16.333c-4.142 0-7.5 3.357-7.5 7.5z" fill="url(#SVGID_16_)"/><path d="m328.9 142.475c0 4.143 3.358 7.5 7.5 7.5h16.333c4.142 0 7.5-3.357 7.5-7.5s-3.358-7.5-7.5-7.5h-16.333c-4.142 0-7.5 3.357-7.5 7.5z" fill="url(#SVGID_17_)"/><path d="m328.9 279.475c0 4.143 3.358 7.5 7.5 7.5h16.333c4.142 0 7.5-3.357 7.5-7.5s-3.358-7.5-7.5-7.5h-16.333c-4.142 0-7.5 3.357-7.5 7.5z" fill="url(#SVGID_18_)"/><path d="m430.233 147.475c0 4.143 3.358 7.5 7.5 7.5h16.333c4.142 0 7.5-3.357 7.5-7.5s-3.358-7.5-7.5-7.5h-16.333c-4.142 0-7.5 3.357-7.5 7.5z" fill="url(#SVGID_19_)"/><path d="m328.9 385.975c0 4.143 3.358 7.5 7.5 7.5h16.333c4.142 0 7.5-3.357 7.5-7.5s-3.358-7.5-7.5-7.5h-16.333c-4.142 0-7.5 3.357-7.5 7.5z" fill="url(#SVGID_20_)"/><path d="m153.4 261.475c0 4.143 3.358 7.5 7.5 7.5h16.333c4.142 0 7.5-3.357 7.5-7.5s-3.358-7.5-7.5-7.5h-16.333c-4.142 0-7.5 3.357-7.5 7.5z" fill="url(#SVGID_21_)"/><g><path d="m255 20c-6.884 0-13.582.795-20.01 2.293 38.834 9.055 67.763 43.888 67.763 85.48v342.227h40.02v-342.227c0-48.476-39.297-87.773-87.773-87.773z" fill="url(#SVGID_22_)"/><path d="m255 76.5c-4.143 0-7.5 3.358-7.5 7.5v146c0 4.142 3.357 7.5 7.5 7.5s7.5-3.358 7.5-7.5v-146c0-4.142-3.357-7.5-7.5-7.5z" fill="url(#SVGID_23_)"/><path d="m255 298.5c-4.143 0-7.5 3.358-7.5 7.5v144h15v-144c0-4.142-3.357-7.5-7.5-7.5z" fill="url(#SVGID_24_)"/><path d="m210.985 56.015c-4.142 0-7.5 3.358-7.5 7.5v386.485h15v-386.485c0-4.142-3.358-7.5-7.5-7.5z" fill="url(#SVGID_25_)"/></g><path d="m181.4 203.975c0 4.143 3.358 7.5 7.5 7.5h16.333c4.142 0 7.5-3.357 7.5-7.5s-3.358-7.5-7.5-7.5h-16.333c-4.142 0-7.5 3.357-7.5 7.5z" fill="url(#SVGID_26_)"/><path d="m181.4 373.975c0 4.143 3.358 7.5 7.5 7.5h16.333c4.142 0 7.5-3.357 7.5-7.5s-3.358-7.5-7.5-7.5h-16.333c-4.142 0-7.5 3.357-7.5 7.5z" fill="url(#SVGID_27_)"/><path d="m286.4 331.475c0 4.143 3.358 7.5 7.5 7.5h16.333c4.142 0 7.5-3.357 7.5-7.5s-3.358-7.5-7.5-7.5h-16.333c-4.142 0-7.5 3.357-7.5 7.5z" fill="url(#SVGID_28_)"/></g><path d="m497.046 510h-428.783c-12.603 0-17.759-16.192-7.476-23.479 64.854-45.958 142.38-70.642 221.867-70.642 79.487 0 157.013 24.684 221.867 70.642 10.284 7.287 5.128 23.479-7.475 23.479z" fill="url(#SVGID_29_)"/><path d="m504.521 486.521c-64.854-45.958-142.38-70.642-221.867-70.642-6.687 0-13.358.19-20.01.537 72.429 3.781 142.458 28.013 201.857 70.105 10.283 7.287 5.128 23.479-7.476 23.479h40.02c12.604 0 17.76-16.192 7.476-23.479z" fill="url(#SVGID_30_)"/></g></svg>